<svg xmlns="http://www.w3.org/2000/svg" xmlns:xlink="http://www.w3.org/1999/xlink" xmlns:fi="http://pattern.flaticon.com/" x="0" y="0" width="1920" height="960" viewBox="0 0 1920 960"><rect x="0px" y="0px" width="100%" height="100%" opacity="0" fill="#ffffff"/><defs><g transform="matrix(0.1697913181037972 0.04549544656772832 -0.04549544656772832 0.1697913181037972 4.949203970697013 -30.407211697583804)" id="L1_1650"><path d="m489.1875 0h-258.765625c-4.140625 0-7.5 3.359375-7.5 7.5 0 4.144531 3.359375 7.5 7.5 7.5h258.769531c4.304688 0 7.808594 3.503906 7.808594 7.8125v228.34375c0 4.140625 3.359375 7.5 7.5 7.5 4.144531 0 7.5-3.359375 7.5-7.5v-228.34375c0-12.578125-10.230469-22.8125-22.8125-22.8125zm0 0"/><path d="m504.5 276.316406c-4.144531 0-7.5 3.355469-7.5 7.5v14.828125h-482v-275.832031c0-4.308594 3.503906-7.8125 7.808594-7.8125h110.457031c4.140625 0 7.5-3.355469 7.5-7.5 0-4.140625-3.359375-7.5-7.5-7.5h-110.457031c-12.578125 0-22.808594 10.234375-22.808594 22.8125v322.058594c0 9.765625 7.945312 17.710937 17.710938 17.710937h181.757812v36.34375h-30.96875c-4.140625 0-7.5 3.359375-7.5 7.5 0 4.144531 3.359375 7.5 7.5 7.5h175c4.144531 0 7.5-3.355469 7.5-7.5 0-4.140625-3.355469-7.5-7.5-7.5h-30.96875v-36.34375h181.757812c9.765626 0 17.710938-7.945312 17.710938-17.710937v-61.054688c0-4.144531-3.355469-7.5-7.5-7.5zm-206.96875 122.609375h-83.0625v-36.34375h83.0625zm196.757812-51.34375h-476.578124c-1.496094 0-2.710938-1.214843-2.710938-2.710937v-31.226563h482v31.226563c0 1.496094-1.214844 2.710937-2.710938 2.710937zm0 0"/><path d="m165.925781 15h31.835938c4.140625 0 7.5-3.355469 7.5-7.5 0-4.140625-3.359375-7.5-7.5-7.5h-31.835938c-4.140625 0-7.5 3.359375-7.5 7.5 0 4.144531 3.359375 7.5 7.5 7.5zm0 0"/><path d="m46.375 56.648438c-4.140625 0-7.5 3.355468-7.5 7.5v199.042968c0 4.140625 3.359375 7.5 7.5 7.5h58.40625c4.140625 0 7.5-3.359375 7.5-7.5v-199.042968c0-4.144532-3.359375-7.5-7.5-7.5zm50.90625 15v9.054687h-43.40625v-9.054687zm-43.40625 184.042968v-159.988281h43.40625v159.988281zm0 0"/><path d="m413.683594 138.046875h58.40625c4.144531 0 7.5-3.355469 7.5-7.5v-66.398437c0-4.144532-3.355469-7.5-7.5-7.5h-58.40625c-4.140625 0-7.5 3.355468-7.5 7.5v66.398437c0 4.144531 3.359375 7.5 7.5 7.5zm7.5-15v-27.347656h43.40625v27.347656zm43.40625-51.398437v9.054687h-43.40625v-9.054687zm0 0"/><path d="m406.183594 236.871094c0 4.144531 3.359375 7.5 7.5 7.5h58.40625c4.144531 0 7.5-3.355469 7.5-7.5v-66.398438c0-4.144531-3.355469-7.5-7.5-7.5h-58.40625c-4.140625 0-7.5 3.355469-7.5 7.5zm15-7.5v-27.347656h43.40625v27.347656zm43.40625-51.398438v9.050782h-43.40625v-9.050782zm0 0"/><path d="m146.613281 200.625c0 12.058594 9.816407 21.871094 21.875 21.871094 5.492188 0 10.511719-2.035156 14.355469-5.390625l51.546875 28.558593c-.171875 1.105469-.265625 2.242188-.265625 3.394532 0 12.0625 9.8125 21.875 21.875 21.875 12.058594 0 21.871094-9.8125 21.871094-21.875 0-1.152344-.089844-2.289063-.261719-3.394532l51.542969-28.558593c3.84375 3.351562 8.867187 5.390625 14.355468 5.390625 12.0625 0 21.875-9.8125 21.875-21.875 0-9.425782-5.996093-17.480469-14.375-20.546875v-46.457031c8.378907-3.070313 14.375-11.121094 14.375-20.550782 0-12.0625-9.8125-21.875-21.875-21.875-5.476562 0-10.484374 2.027344-14.324218 5.363282l-51.578125-28.574219c.175781-1.105469.265625-2.238281.265625-3.394531 0-12.0625-9.8125-21.875-21.875-21.875-12.058594 0-21.871094 9.8125-21.871094 21.875 0 1.152343.089844 2.289062.265625 3.394531l-51.578125 28.574219c-3.839844-3.335938-8.847656-5.363282-14.324219-5.363282-12.0625 0-21.875 9.8125-21.875 21.875 0 9.425782 5.996094 17.480469 14.375 20.546875v46.460938c-8.378906 3.066406-14.375 11.121093-14.375 20.550781zm109.386719-114.164062c5.476562 0 10.484375-2.027344 14.324219-5.367188l51.578125 28.578125c-.171875 1.105469-.265625 2.238281-.265625 3.394531s.09375 2.292969.265625 3.398438l-51.578125 28.574218c-3.839844-3.335937-8.847657-5.363281-14.324219-5.363281s-10.484375 2.027344-14.324219 5.363281l-51.578125-28.574218c.175782-1.105469.265625-2.242188.265625-3.398438s-.09375-2.289062-.265625-3.394531l51.578125-28.574219c3.839844 3.335938 8.847657 5.363282 14.324219 5.363282zm65.636719 114.164062c0 1.140625.089843 2.261719.257812 3.355469l-51.570312 28.570312c-1.992188-1.734375-4.296875-3.117187-6.824219-4.039062v-46.414063c8.378906-3.066406 14.375-11.121094 14.375-20.550781 0-1.15625-.09375-2.289063-.265625-3.394531l51.578125-28.574219c1.992188 1.730469 4.296875 3.113281 6.824219 4.039063v46.457031c-8.378907 3.066406-14.375 11.121093-14.375 20.550781zm-58.761719-39.078125c0 3.792969-3.085938 6.875-6.875 6.875s-6.875-3.082031-6.875-6.875c0-3.789063 3.085938-6.871094 6.875-6.871094s6.875 3.082031 6.875 6.871094zm-80.0625-31.96875 51.578125 28.574219c-.171875 1.109375-.265625 2.242187-.265625 3.398437 0 9.425781 5.996094 17.480469 14.375 20.546875v46.414063c-2.527344.925781-4.832031 2.308593-6.824219 4.039062l-51.570312-28.570312c.167969-1.09375.257812-2.214844.257812-3.355469 0-9.429688-5.996093-17.484375-14.375-20.550781v-46.457031c2.527344-.925782 4.832031-2.308594 6.824219-4.039063zm-14.324219 77.917969c-3.789062 0-6.875-3.082032-6.875-6.871094 0-3.792969 3.085938-6.875 6.875-6.875 3.792969 0 6.875 3.082031 6.875 6.875 0 3.789062-3.082031 6.871094-6.875 6.871094zm87.511719 48.4375c-3.789062 0-6.875-3.085938-6.875-6.875 0-3.789063 3.085938-6.875 6.875-6.875s6.875 3.085937 6.875 6.875c0 3.789062-3.085938 6.875-6.875 6.875zm87.511719-48.4375c-3.789063 0-6.875-3.082032-6.875-6.871094 0-3.792969 3.085937-6.875 6.875-6.875 3.789062 0 6.875 3.082031 6.875 6.875 0 3.789062-3.085938 6.871094-6.875 6.871094zm0-101.304688c3.789062 0 6.875 3.085938 6.875 6.875 0 3.789063-3.085938 6.875-6.875 6.875-3.789063 0-6.875-3.085937-6.875-6.875 0-3.789062 3.085937-6.875 6.875-6.875zm-87.511719-48.480468c3.789062 0 6.875 3.085937 6.875 6.875 0 3.789062-3.085938 6.875-6.875 6.875s-6.875-3.085938-6.875-6.875c0-3.789063 3.085938-6.875 6.875-6.875zm-87.511719 48.480468c3.792969 0 6.875 3.085938 6.875 6.875 0 3.789063-3.082031 6.875-6.875 6.875-3.789062 0-6.875-3.085937-6.875-6.875 0-3.789062 3.085938-6.875 6.875-6.875zm0 0"/></g><g transform="matrix(0.10065868824408229 -0.017615270773589316 0.017615270773589316 0.10065868824408229 144.09493129439255 153.30209728796882)" id="L1_1655"><path d="M325.762,70.513l-17.706-4.854c-2.279-0.76-4.524-0.521-6.707,0.715c-2.19,1.237-3.669,3.094-4.429,5.568L190.426,440.53    c-0.76,2.475-0.522,4.809,0.715,6.995c1.237,2.19,3.09,3.665,5.568,4.425l17.701,4.856c2.284,0.766,4.521,0.526,6.71-0.712    c2.19-1.243,3.666-3.094,4.425-5.564L332.042,81.936c0.759-2.474,0.523-4.808-0.716-6.999    C330.088,72.747,328.237,71.272,325.762,70.513z"/><path d="M166.167,142.465c0-2.474-0.953-4.665-2.856-6.567l-14.277-14.276c-1.903-1.903-4.093-2.857-6.567-2.857    s-4.665,0.955-6.567,2.857L2.856,254.666C0.95,256.569,0,258.759,0,261.233c0,2.474,0.953,4.664,2.856,6.566l133.043,133.044    c1.902,1.906,4.089,2.854,6.567,2.854s4.665-0.951,6.567-2.854l14.277-14.268c1.903-1.902,2.856-4.093,2.856-6.57    c0-2.471-0.953-4.661-2.856-6.563L51.107,261.233l112.204-112.201C165.217,147.13,166.167,144.939,166.167,142.465z"/><path d="M519.614,254.663L386.567,121.619c-1.902-1.902-4.093-2.857-6.563-2.857c-2.478,0-4.661,0.955-6.57,2.857l-14.271,14.275    c-1.902,1.903-2.851,4.09-2.851,6.567s0.948,4.665,2.851,6.567l112.206,112.204L359.163,373.442    c-1.902,1.902-2.851,4.093-2.851,6.563c0,2.478,0.948,4.668,2.851,6.57l14.271,14.268c1.909,1.906,4.093,2.854,6.57,2.854    c2.471,0,4.661-0.951,6.563-2.854L519.614,267.8c1.903-1.902,2.854-4.096,2.854-6.57    C522.468,258.755,521.517,256.565,519.614,254.663z"/></g><g transform="matrix(2.11357687286314 0.6701585137833991 -0.6701585137833991 2.11357687286314 278.8382086857686 67.74075507649832)" id="L1_1656"><circle cx="11" cy="8" r="2"/><circle cx="16" cy="17" r="1"/><path d="M24.423,12.417c1.894-9.269-5.637-13.511-13.995-12.176C2.069,1.574,2.383,6.63,1.891,9.043    C0.912,15.09,7.137,21.848,7.137,21.848l-0.355,7.025h10.136l0.776-3.23c0,0,0.44,0.738,3.059,0.96    c2.62,0.222,2.301-2.976,2.301-2.976s1.744-0.77,1.744-1.346c0-0.578-1.032-1.322-1.032-1.322s1.109,0.199,1.511-0.268    c0.399-0.467-0.49-2.154-0.49-2.154s1.368-0.035,2.174-0.922C27.767,16.729,24.423,14.106,24.423,12.417z M9.946,13.684    c0,0-0.057-0.626-0.085-0.939c-0.252-0.067-0.495-0.156-0.728-0.26c-0.276,0.234-0.828,0.701-0.828,0.701    s-0.094,0.052-0.141,0.078c-0.047,0.025-0.925-0.078-0.925-0.078l-1.51-1.783v-1.065c0,0,0.581-0.492,0.871-0.738    C6.537,9.361,6.499,9.118,6.482,8.867C6.101,8.692,5.341,8.345,5.341,8.345L5.036,7.458l0.035-0.145l0.975-2.124l1.031-0.271    c0,0,0.656,0.3,0.983,0.449c0.2-0.162,0.416-0.309,0.644-0.438C8.671,4.534,8.607,3.743,8.607,3.743L9.361,2.99l2.328-0.188    l0.754,0.754c0,0,0.048,0.601,0.073,0.901c0.303,0.082,0.592,0.191,0.867,0.324c0.252-0.217,0.757-0.649,0.757-0.649h1.067    l1.521,1.774V6.97c0,0-0.617,0.528-0.926,0.793c0.046,0.215,0.07,0.437,0.081,0.661c0.39,0.225,1.168,0.675,1.168,0.675    l0.271,1.031l-1.169,2.022l-1.031,0.271c0,0-0.605-0.35-0.908-0.524c-0.171,0.133-0.354,0.251-0.544,0.36    c0.036,0.404,0.109,1.211,0.109,1.211l-0.753,0.754l-2.325,0.212L9.946,13.684z M19.431,19.637l-0.661,0.174    c0,0-0.388-0.225-0.583-0.336c-0.11,0.085-0.228,0.16-0.35,0.23c0.023,0.26,0.07,0.776,0.07,0.776l-0.482,0.483l-1.491,0.136    l-0.483-0.483c0,0-0.037-0.4-0.055-0.603c-0.162-0.043-0.317-0.101-0.466-0.167c-0.177,0.15-0.531,0.449-0.531,0.449    s-0.061,0.033-0.09,0.051c-0.03,0.018-0.594-0.051-0.594-0.051l-0.968-1.145v-0.684c0,0,0.372-0.315,0.558-0.473    c-0.04-0.152-0.064-0.31-0.075-0.471c-0.245-0.111-0.732-0.335-0.732-0.335l-0.196-0.567l0.022-0.094l0.625-1.361l0.662-0.174    c0,0,0.42,0.191,0.63,0.288c0.128-0.104,0.267-0.197,0.413-0.281c-0.02-0.253-0.061-0.762-0.061-0.762l0.483-0.483l1.493-0.12    l0.484,0.483c0,0,0.03,0.385,0.046,0.578c0.194,0.053,0.38,0.123,0.556,0.208c0.162-0.139,0.486-0.417,0.486-0.417h0.685    l0.977,1.14v0.684c0,0-0.396,0.339-0.595,0.509c0.03,0.138,0.045,0.28,0.052,0.425c0.25,0.145,0.75,0.432,0.75,0.432l0.173,0.662    L19.431,19.637z"/></g><g transform="matrix(0.09765605628490448 0 0 0.09765605628490448 84.5 253.499999987793)" id="L1_1658"><path d="m55.261719 28.761719c-12.125 0-21.988281 9.867187-21.988281 21.988281 0 12.125 9.863281 21.992188 21.988281 21.992188s21.992187-9.867188 21.992187-21.992188c0-12.121094-9.867187-21.988281-21.992187-21.988281zm0 28.992187c-3.859375 0-7.003907-3.140625-7.003907-7.003906 0-3.859375 3.144532-7 7.003907-7 3.863281 0 7.003906 3.140625 7.003906 7 0 3.863281-3.140625 7.003906-7.003906 7.003906zm0 0"/><path d="m111.25 28.761719c-12.125 0-21.992188 9.867187-21.992188 21.988281 0 12.125 9.867188 21.992188 21.992188 21.992188s21.988281-9.867188 21.988281-21.992188c0-12.121094-9.863281-21.988281-21.988281-21.988281zm0 28.992187c-3.863281 0-7.003906-3.140625-7.003906-7.003906 0-3.859375 3.140625-7 7.003906-7 3.859375 0 7.003906 3.140625 7.003906 7 0 3.863281-3.144531 7.003906-7.003906 7.003906zm0 0"/><path d="m167.234375 28.761719c-12.125 0-21.988281 9.867187-21.988281 21.988281 0 12.125 9.863281 21.992188 21.988281 21.992188s21.992187-9.867188 21.992187-21.992188c0-12.121094-9.867187-21.988281-21.992187-21.988281zm0 28.992187c-3.859375 0-7.003906-3.140625-7.003906-7.003906 0-3.859375 3.144531-7 7.003906-7 3.863281 0 7.003906 3.140625 7.003906 7 0 3.863281-3.140625 7.003906-7.003906 7.003906zm0 0"/><path d="m503.9375 147.824219c4.140625 0 7.496094-3.355469 7.496094-7.496094l.566406-107.351563c0-18.183593-14.792969-32.976562-32.976562-32.976562h-446.042969c-18.183594 0-32.980469 14.796875-32.980469 32.980469v362.566406c0 16.480469 12.152344 30.175781 27.964844 32.597656 1.636718.253907 3.3125.382813 5.015625.382813h145.804687v26.875h-22.625c-15.089844 0-27.371094 12.277344-27.371094 27.367187v16.191407c0 6.886718 5.601563 12.488281 12.488282 12.488281h35.734375c4.136719 0 7.492187-3.355469 7.492187-7.496094 0-4.136719-3.355468-7.492187-7.492187-7.492187h-33.234375v-13.691407c0-6.828125 5.554687-12.382812 12.382812-12.382812h199.113282c6.828124 0 12.382812 5.554687 12.382812 12.382812v13.691407h-144.125c-4.136719 0-7.492188 3.355468-7.492188 7.492187 0 4.140625 3.355469 7.496094 7.492188 7.496094h146.621094c6.886718 0 12.488281-5.601563 12.488281-12.488281v-16.191407c0-15.089843-12.277344-27.367187-27.371094-27.367187h-22.625v-26.875h145.808594c1.703125 0 3.378906-.128906 5.011719-.382813 15.816406-2.421875 27.964844-16.117187 27.964844-32.597656v-208.757813c0-4.140624-3.351563-7.496093-7.492188-7.496093-4.136719 0-7.492188 3.355469-7.492188 7.496093v165.347657h-234.234374v-250.207031h234.234374v38.398437c0 4.140625 3.355469 7.496094 7.492188 7.496094zm-488.398438-45.894531h231.683594v249.667968h-231.683594zm302.121094 353.472656h-123.886718v-26.875h123.886718zm178.785156-88.277344v28.421875c0 9.300781-7.09375 16.976563-16.15625 17.902344-.605468.058593-1.214843.089843-1.835937.089843h-445.472656c-.621094 0-1.234375-.03125-1.835938-.089843-9.0625-.925781-16.15625-8.601563-16.15625-17.902344v-28.421875zm-241.726562-280.183594h-239.179688v-53.964844c0-9.917968 8.070313-17.988281 17.992188-17.988281h444.921875c9.921875 0 17.992187 8.070313 17.992187 17.992188v53.960937zm0 0"/><path d="m46.90625 131.792969h37.964844c4.136718 0 7.492187-3.351563 7.492187-7.492188 0-4.136719-3.355469-7.492187-7.492187-7.492187h-37.964844c-4.140625 0-7.496094 3.355468-7.496094 7.492187 0 4.140625 3.355469 7.492188 7.496094 7.492188zm0 0"/><path d="m110.847656 131.792969h17.984375c4.136719 0 7.492188-3.351563 7.492188-7.492188 0-4.136719-3.355469-7.492187-7.492188-7.492187h-17.984375c-4.140625 0-7.492187 3.355468-7.492187 7.492187 0 4.140625 3.351562 7.492188 7.492187 7.492188zm0 0"/><path d="m103.851562 143.257812h-24.976562c-4.136719 0-7.492188 3.355469-7.492188 7.496094 0 4.136719 3.355469 7.492188 7.492188 7.492188h24.976562c4.140626 0 7.496094-3.355469 7.496094-7.492188 0-4.140625-3.355468-7.496094-7.496094-7.496094zm0 0"/><path d="m221.746094 170.65625h-24.976563c-4.136719 0-7.492187 3.355469-7.492187 7.492188 0 4.136718 3.355468 7.492187 7.492187 7.492187h24.976563c4.140625 0 7.492187-3.355469 7.492187-7.492187 0-4.136719-3.351562-7.492188-7.492187-7.492188zm0 0"/><path d="m119.339844 150.753906c0 4.136719 3.355468 7.492188 7.492187 7.492188h59.945313c4.140625 0 7.496094-3.355469 7.496094-7.492188 0-4.140625-3.355469-7.496094-7.496094-7.496094h-59.945313c-4.136719 0-7.492187 3.355469-7.492187 7.496094zm0 0"/><path d="m95.359375 178.148438c0 4.136718 3.355469 7.492187 7.496094 7.492187h12.988281c4.136719 0 7.492188-3.355469 7.492188-7.492187 0-4.136719-3.355469-7.492188-7.492188-7.492188h-12.988281c-4.140625 0-7.496094 3.355469-7.496094 7.492188zm0 0"/><path d="m173.789062 185.640625c4.140626 0 7.496094-3.355469 7.496094-7.492187 0-4.136719-3.355468-7.492188-7.496094-7.492188h-35.964843c-4.140625 0-7.496094 3.355469-7.496094 7.492188 0 4.136718 3.355469 7.492187 7.496094 7.492187zm0 0"/><path d="m92.363281 275.269531c0-4.140625-3.355469-7.492187-7.492187-7.492187h-37.964844c-4.140625 0-7.496094 3.351562-7.496094 7.492187 0 4.136719 3.355469 7.492188 7.496094 7.492188h37.964844c4.136718 0 7.492187-3.355469 7.492187-7.492188zm0 0"/><path d="m110.847656 267.777344c-4.140625 0-7.492187 3.351562-7.492187 7.492187 0 4.136719 3.351562 7.492188 7.492187 7.492188h17.984375c4.136719 0 7.492188-3.355469 7.492188-7.492188 0-4.140625-3.355469-7.492187-7.492188-7.492187zm0 0"/><path d="m111.347656 301.71875c0-4.136719-3.355468-7.492188-7.496094-7.492188h-24.976562c-4.136719 0-7.492188 3.355469-7.492188 7.492188 0 4.140625 3.355469 7.496094 7.492188 7.496094h24.976562c4.140626 0 7.496094-3.355469 7.496094-7.496094zm0 0"/><path d="m115.84375 321.625h-12.988281c-4.140625 0-7.496094 3.351562-7.496094 7.492188 0 4.136718 3.355469 7.492187 7.496094 7.492187h12.988281c4.136719 0 7.492188-3.355469 7.492188-7.492187 0-4.140626-3.355469-7.492188-7.492188-7.492188zm0 0"/><path d="m221.746094 321.625h-24.976563c-4.136719 0-7.492187 3.351562-7.492187 7.492188 0 4.136718 3.355468 7.492187 7.492187 7.492187h24.976563c4.140625 0 7.492187-3.355469 7.492187-7.492187 0-4.140626-3.351562-7.492188-7.492187-7.492188zm0 0"/><path d="m194.273438 301.71875c0-4.136719-3.355469-7.492188-7.496094-7.492188h-59.945313c-4.136719 0-7.492187 3.355469-7.492187 7.492188 0 4.140625 3.355468 7.496094 7.492187 7.496094h59.945313c4.140625 0 7.496094-3.355469 7.496094-7.496094zm0 0"/><path d="m173.789062 321.625h-35.964843c-4.140625 0-7.496094 3.351562-7.496094 7.492188 0 4.136718 3.355469 7.492187 7.496094 7.492187h35.964843c4.140626 0 7.496094-3.355469 7.496094-7.492187 0-4.140626-3.355468-7.492188-7.496094-7.492188zm0 0"/><path d="m46.90625 219.976562h20.980469c4.136719 0 7.492187-3.355468 7.492187-7.492187 0-4.140625-3.355468-7.492187-7.492187-7.492187h-20.980469c-4.140625 0-7.496094 3.351562-7.496094 7.492187 0 4.136719 3.355469 7.492187 7.496094 7.492187zm0 0"/><path d="m173.289062 212.484375c0-4.140625-3.351562-7.492187-7.492187-7.492187h-76.929687c-4.136719 0-7.492188 3.351562-7.492188 7.492187 0 4.136719 3.355469 7.492187 7.492188 7.492187h76.929687c4.140625 0 7.492187-3.355468 7.492187-7.492187zm0 0"/><path d="m159.304688 238.933594c0-4.136719-3.355469-7.492188-7.496094-7.492188h-72.933594c-4.136719 0-7.492188 3.355469-7.492188 7.492188 0 4.140625 3.355469 7.496094 7.492188 7.496094h72.933594c4.140625 0 7.496094-3.355469 7.496094-7.496094zm0 0"/><path d="m172.792969 246.429688h13.984375c4.140625 0 7.496094-3.355469 7.496094-7.496094 0-4.136719-3.355469-7.492188-7.496094-7.492188h-13.984375c-4.140625 0-7.496094 3.355469-7.496094 7.492188 0 4.140625 3.355469 7.496094 7.496094 7.496094zm0 0"/><path d="m343.015625 289.652344h-47.953125c-4.140625 0-7.496094 3.355468-7.496094 7.492187 0 4.140625 3.355469 7.492188 7.496094 7.492188h47.953125c4.140625 0 7.496094-3.351563 7.496094-7.492188 0-4.136719-3.355469-7.492187-7.496094-7.492187zm0 0"/><path d="m464.90625 289.652344h-94.914062c-4.136719 0-7.492188 3.355468-7.492188 7.492187 0 4.140625 3.355469 7.492188 7.492188 7.492188h94.914062c4.140625 0 7.496094-3.351563 7.496094-7.492188 0-4.136719-3.355469-7.492187-7.496094-7.492187zm0 0"/><path d="m343.015625 318.625h-47.953125c-4.140625 0-7.496094 3.355469-7.496094 7.496094 0 4.136718 3.355469 7.492187 7.496094 7.492187h47.953125c4.140625 0 7.496094-3.355469 7.496094-7.492187 0-4.140625-3.355469-7.496094-7.496094-7.496094zm0 0"/><path d="m464.90625 318.625h-94.914062c-4.136719 0-7.492188 3.355469-7.492188 7.496094 0 4.136718 3.355469 7.492187 7.492188 7.492187h94.914062c4.140625 0 7.496094-3.355469 7.496094-7.492187 0-4.140625-3.355469-7.496094-7.496094-7.496094zm0 0"/><path d="m472.628906 136.171875c0-10.675781-8.683594-19.363281-19.359375-19.363281h-146.570312c-10.675781 0-19.363281 8.6875-19.363281 19.363281v101.484375.007812 17.75c0 10.675782 8.6875 19.363282 19.363281 19.363282h146.570312c10.675781 0 19.359375-8.6875 19.359375-19.363282zm-14.984375 119.242187c0 2.414063-1.964843 4.375-4.375 4.375h-146.570312c-2.414063 0-4.375-1.960937-4.375-4.375v-14.648437l54.882812-54.855469 37.878907 42.6875c2.746093 3.097656 7.484374 3.378906 10.578124.632813 3.097657-2.746094 3.378907-7.480469.632813-10.578125l-3.4375-3.871094 16.9375-16.929688 37.847656 42.65625zm0-37.488281-28.839843-32.5c-2.160157-2.433593-5.265626-3.886719-8.519532-3.984375-3.269531-.09375-6.441406 1.167969-8.742187 3.46875l-18.648438 18.636719-26.679687-30.0625c-2.160156-2.4375-5.265625-3.890625-8.519532-3.984375-3.25-.089844-6.441406 1.164062-8.742187 3.464844l-46.628906 46.609375v-83.402344c0-2.414063 1.960937-4.378906 4.375-4.378906h146.570312c2.414063 0 4.375 1.964843 4.375 4.378906zm0 0"/></g><g transform="matrix(1.40625 0 0 1.40625 220.5 218.5)" id="L1_1659"><path d="m55.71 56.29-6-6a1.033 1.033 0 0 0 -.71-.29h-30v-2a3.009 3.009 0 0 0 -3-3h-6a1 1 0 0 1 0-2h6a3.009 3.009 0 0 0 3-3v-2h7v4h-4a1 1 0 0 0 -1 1v4a1 1 0 0 0 1 1h20a1 1 0 0 0 1-1v-4a1 1 0 0 0 -1-1h-4v-4h14a3.009 3.009 0 0 0 3-3v-26a3.009 3.009 0 0 0 -3-3h-2v2h2a1 1 0 0 1 1 1v21h-5.18a3 3 0 0 0 .18-1v-24a3.009 3.009 0 0 0 -3-3h-26a3.009 3.009 0 0 0 -3 3v24a3 3 0 0 0 .18 1h-5.18v-21a1 1 0 0 1 1-1h2v-2h-2a3.009 3.009 0 0 0 -3 3v26a3.009 3.009 0 0 0 3 3h5v2a1 1 0 0 1 -1 1h-6a3 3 0 0 0 0 6h6a1 1 0 0 1 1 1v2h-2a1.033 1.033 0 0 0 -.71.29l-6 6a1.033 1.033 0 0 0 -.29.71v3a2.006 2.006 0 0 0 2 2h44a2.006 2.006 0 0 0 2-2v-3a1.033 1.033 0 0 0 -.29-.71zm-14.71-12.29v2h-18v-2zm-13-2v-4h8v4zm-10-37a1 1 0 0 1 1-1h26a1 1 0 0 1 1 1v3h-28zm0 5h28v19a1 1 0 0 1 -1 1h-26a1 1 0 0 1 -1-1zm-6 26a1 1 0 0 1 -1-1v-3h42v3a1 1 0 0 1 -1 1zm3.41 16h33.18l4 4h-41.18zm38.59 8h-44v-2h44z" fill="#000000"/><path d="m16 53h2v2h-2z" fill="#000000"/><path d="m20 53h2v2h-2z" fill="#000000"/><path d="m42 53h2v2h-2z" fill="#000000"/><path d="m24 53h16v2h-16z" fill="#000000"/><path d="m46 53h2v2h-2z" fill="#000000"/><path d="m47 33h2v2h-2z" fill="#000000"/><path d="m27.293 19.707 1.414-1.414-2.293-2.293 2.293-2.293-1.414-1.414-3 3a1 1 0 0 0 0 1.414z" fill="#000000"/><path d="m36.707 12.293-1.414 1.414 2.293 2.293-2.293 2.293 1.414 1.414 3-3a1 1 0 0 0 0-1.414z" fill="#000000"/><path d="m28.838 15h6.325v1.999h-6.325z" transform="matrix(0.317 -0.949 0.949 0.317 6.694 41.29)" fill="#000000"/><path d="m24 22h4v2h-4z" fill="#000000"/><path d="m30 22h8v2h-8z" fill="#000000"/><path d="m26 26h6v2h-6z" fill="#000000"/><path d="m34 26h4v2h-4z" fill="#000000"/><path d="m20 5h2v2h-2z" fill="#000000"/><path d="m24 5h2v2h-2z" fill="#000000"/><path d="m28 5h2v2h-2z" fill="#000000"/></g><g transform="matrix(0.1171872690320015 0 0 0.1171872690320015 170 8)" id="L1_1660"><path d="M268.662,243.351c-3.91-3.91-10.24-3.91-14.15,0c-3.9,3.9-3.9,10.23,0,14.14c3.91,3.9,10.24,3.9,14.15,0    C272.562,253.581,272.562,247.251,268.662,243.351z"/><path d="M395.933,116.07c-19.54-19.539-51.172-19.54-70.713,0c-19.489,19.489-19.49,51.209,0.003,70.714    c19.496,19.484,51.216,19.492,70.71-0.002C415.471,167.244,415.475,135.611,395.933,116.07z M381.791,172.639    c-11.693,11.694-30.727,11.694-42.426,0.002c-11.695-11.702-11.696-30.736-0.002-42.429c11.723-11.723,30.703-11.725,42.428,0    C393.514,141.934,393.516,160.915,381.791,172.639z"/><path d="M509.07,2.929c-1.964-1.963-4.644-3.027-7.43-2.922c-2.261,0.081-56.096,2.245-120.091,24.864    c-51.28,18.106-94.023,44.029-127.042,77.049c-7.399,7.399-14.599,15.245-21.488,23.396c-32.648-19.218-58.81-13.192-75.349-4.341    c-38.081,20.38-61.652,75.716-61.652,115.296c0.003,4.044,2.44,7.691,6.176,9.238c1.237,0.513,2.537,0.762,3.825,0.762    c2.603,0,5.16-1.017,7.073-2.929c20.083-20.083,44.854-18.827,52.946-17.763l3.502,3.502c-6.892,16.4-12.444,32.708-16.516,48.569    c-1.47,5.74-0.974,11.814,1.211,17.37c-9.628,4.437-18.917,10.952-27.005,19.04c-25.741,25.742-30.968,88.476-31.178,91.134    c-0.23,2.917,0.828,5.789,2.897,7.858c1.883,1.882,4.43,2.929,7.07,2.929c0.262,0,0.525-0.01,0.788-0.031    c2.658-0.209,65.394-5.436,91.135-31.177c8.085-8.085,14.599-17.373,19.036-26.999c5.882,2.313,11.936,2.598,17.38,1.203    c15.854-4.071,32.16-9.621,48.562-16.514l3.502,3.502c1.063,8.093,2.319,32.864-17.763,52.945    c-2.859,2.86-3.715,7.161-2.167,10.897c1.547,3.737,5.193,6.173,9.238,6.173c39.58,0,94.915-23.571,115.295-61.652    c8.851-16.537,14.877-42.699-4.341-75.348c8.147-6.886,15.994-14.086,23.396-21.488c33.02-33.02,58.942-75.763,77.048-127.039    c22.62-63.998,24.783-117.834,24.864-120.094C512.092,7.584,511.033,4.893,509.07,2.929z M118.376,214.762    c6.212-30.063,24.255-63.052,48.735-76.154c16.359-8.754,34.24-7.896,53.252,2.511c-16.197,21.302-30.278,44.252-42.015,68.487    c-0.149-0.092-1.949-2.355-5.293-3.109C171.68,206.186,145.221,200.495,118.376,214.762z M183.8,370.63    c-13.75,13.75-46.005,21.002-66.392,23.963c2.962-20.388,10.215-52.642,23.964-66.391c7.7-7.7,16.628-13.538,25.602-16.826    l33.652,33.652C197.338,354.002,191.501,362.93,183.8,370.63z M229.39,339.603c-2.894,0.741-6.246-0.347-8.738-2.835    c-12.937-12.937-17.998-17.998-19.586-19.585c-2.912-2.912-10.053-10.053-25.826-25.827c-2.494-2.499-3.582-5.85-2.843-8.739    c3.203-12.474,7.392-25.272,12.486-38.193l82.695,82.695C254.655,332.214,241.859,336.402,229.39,339.603z M373.394,344.891    c-13.102,24.479-46.09,42.523-76.152,48.734c9.585-18.037,11.698-40.998,8.196-54.921c-0.813-3.234-2.923-4.86-3.041-5.051    c24.233-11.737,47.182-25.818,68.486-42.015C381.29,310.652,382.147,328.535,373.394,344.891z M395.94,243.35    c-9.011,9.01-18.714,17.715-28.84,25.872c-24.342,19.6-51.134,36.202-79.718,49.418l-94.02-94.018    c13.216-28.586,29.818-55.378,49.416-79.717c8.164-10.133,16.868-19.837,25.875-28.843    c29.625-29.626,67.859-53.204,113.671-70.176l83.792,83.792C449.146,175.489,425.568,213.723,395.94,243.35z M473.311,108.587    l-69.896-69.896c38.081-11.828,71.21-16.257,87.746-17.849C489.568,37.381,485.138,70.51,473.311,108.587z"/><path d="M240.371,413.049c-3.907-3.905-10.239-3.903-14.143,0.002l-28.28,28.29c-3.904,3.906-3.903,10.238,0.002,14.142    c3.907,3.904,10.239,3.904,14.143-0.002l28.28-28.29C244.277,423.285,244.276,416.953,240.371,413.049z"/><path d="M98.954,271.631c-3.904-3.906-10.235-3.906-14.142-0.002l-28.29,28.28c-3.906,3.904-3.907,10.236-0.003,14.142    c3.903,3.904,10.234,3.908,14.142,0.002l28.29-28.28C102.857,281.869,102.858,275.537,98.954,271.631z"/><path d="M169.663,427.2c-3.903-3.905-10.236-3.905-14.142-0.001l-67.74,67.73c-3.906,3.905-3.906,10.237-0.001,14.142    c3.903,3.905,10.236,3.907,14.142,0.001l67.74-67.73C173.568,437.437,173.568,431.105,169.663,427.2z"/><path d="M89.663,427.2c-3.904-3.905-10.237-3.905-14.142-0.001l-67.74,67.73c-3.906,3.905-3.906,10.237-0.001,14.142    c3.903,3.905,10.236,3.907,14.142,0.001l67.74-67.73C93.568,437.437,93.568,431.105,89.663,427.2z"/><path d="M84.802,342.338c-3.904-3.904-10.237-3.904-14.142,0.001l-67.73,67.74c-3.905,3.906-3.905,10.237,0.001,14.143    c3.905,3.905,10.237,3.905,14.142-0.001l67.73-67.74C88.708,352.575,88.708,346.244,84.802,342.338z"/><path d="M311.083,200.919c-3.906-3.905-10.236-3.905-14.143,0l-14.14,14.14c-3.905,3.905-3.905,10.237,0,14.143    c3.906,3.905,10.237,3.905,14.143,0l14.14-14.14C314.988,211.157,314.988,204.825,311.083,200.919z"/></g><g transform="matrix(0.9375 0 0 0.9375 7.0000007438659395 164)" id="L1_1661"><path d="m50 25a18 18 0 1 0 -27.712 15.157 5.734 5.734 0 0 1 2.712 4.802v4.041a3 3 0 0 0 3 3h8a3 3 0 0 0 3-3v-3.958a5.891 5.891 0 0 1 2.77-4.922 17.984 17.984 0 0 0 8.23-15.12z" fill="#e39d10"/><path d="m27 58a3 3 0 0 0 3 3h4a3 3 0 0 0 3-3v-6h-10z" fill="#ebebeb"/><path d="m56.193 14.421 3.144-2.358-3.6-4.8-3.144 2.358a2 2 0 0 1 -3.179-1.883l.555-3.889-5.94-.849-.555 3.889a2 2 0 0 1 -3.58.918l-2.357-3.144-4.8 3.6 2.357 3.144a2 2 0 0 1 -1.883 3.179l-3.889-.555-.849 5.94 3.89.555a2 2 0 0 1 .917 3.58l-3.143 2.358 3.6 4.8 3.143-2.357a2 2 0 0 1 3.18 1.883l-.56 3.888 5.94.849.56-3.89a2 2 0 0 1 3.58-.917l2.358 3.143 4.8-3.6-2.359-3.143a2 2 0 0 1 1.883-3.18l3.889.556.849-5.94-3.889-.556a2 2 0 0 1 -.918-3.579zm-11.456 11.842a7 7 0 1 1 7-7 7 7 0 0 1 -7 7z" fill="#10bde0"/><path d="m22.288 40.157a18.049 18.049 0 0 1 -2.464-1.908 4.992 4.992 0 1 1 -4.824-6.249c.153 0 .3.032.446.045a17.986 17.986 0 0 1 -1.436-7.045h-1.273l-.691 3.287a1 1 0 0 1 -1.546.618l-2.763-1.905-3 3 1.9 2.763a1 1 0 0 1 -.618 1.546l-3.282.691v4l3.286.691a1 1 0 0 1 .618 1.546l-1.904 2.763 3 3 2.763-1.9a1 1 0 0 1 1.547.618l.69 3.282h4l.69-3.287a1 1 0 0 1 1.547-.618l2.763 1.905 3.139-3.139a5.822 5.822 0 0 0 -2.588-3.704z" fill="#c9dfff"/><path d="m61.142 17.566-3.89-.555a1 1 0 0 1 -.459-1.79l3.144-2.358a1 1 0 0 0 .2-1.4l-3.6-4.8a1 1 0 0 0 -1.4-.2l-3.143 2.358a1 1 0 0 1 -1.594-.941l.556-3.89a1 1 0 0 0 -.849-1.132l-5.936-.848a1 1 0 0 0 -1.132.848l-.556 3.89a1 1 0 0 1 -1.79.459l-2.357-3.144a1 1 0 0 0 -1.4-.2l-3.005 2.255a19.347 19.347 0 0 0 -4.09 0 19 19 0 0 0 -16.753 17.037c-.027.283-.037.564-.051.845h-.3a1 1 0 0 0 -.978.8l-.691 3.286-2.768-1.909a1 1 0 0 0 -1.275.116l-3 3a1 1 0 0 0 -.116 1.274l1.9 2.763-3.287.691a1 1 0 0 0 -.786.979v4a1 1 0 0 0 .794.979l3.287.691-1.9 2.763a1 1 0 0 0 .116 1.274l3 3a1 1 0 0 0 1.275.116l2.763-1.905.691 3.287a1 1 0 0 0 .978.8h4a1 1 0 0 0 .979-.794l.691-3.287 2.763 1.9a1 1 0 0 0 1.274-.116l1.553-1.558v2.85a3.987 3.987 0 0 0 2 3.444v5.556a4 4 0 0 0 4 4h4a4 4 0 0 0 4-4v-5.556a3.987 3.987 0 0 0 2-3.444v-3.958a4.9 4.9 0 0 1 2.313-4.082 19.185 19.185 0 0 0 2.354-1.8l-1.334-1.49a17.02 17.02 0 0 1 -2.107 1.611 6.888 6.888 0 0 0 -3.226 5.761v3.958a2 2 0 0 1 -2 2h-8a2 2 0 0 1 -2-2v-4.041a6.728 6.728 0 0 0 -3.172-5.644 16.949 16.949 0 0 1 8.957-31.3 1.09 1.09 0 0 0 -.039.109 1 1 0 0 0 .191.741l2.357 3.143a.979.979 0 0 1 .06 1.11.994.994 0 0 1 -1 .481l-3.89-.556a1 1 0 0 0 -1.132.849l-.849 5.939a1 1 0 0 0 .849 1.132l3.89.556a1 1 0 0 1 .459 1.79l-3.143 2.357a1 1 0 0 0 -.2 1.4l3.6 4.8a1 1 0 0 0 1.4.2l3.144-2.357a1 1 0 0 1 1.589.941l-.555 3.89a1 1 0 0 0 .848 1.132l5.94.849a1.112 1.112 0 0 0 .141.009 1 1 0 0 0 .991-.858l.555-3.89a1 1 0 0 1 1.79-.459l2.358 3.143a1 1 0 0 0 1.4.2l4.8-3.6a1 1 0 0 0 .2-1.4l-2.357-3.143a.983.983 0 0 1 -.06-1.11.971.971 0 0 1 1-.48l3.89.555a1 1 0 0 0 1.132-.848l.848-5.94a1 1 0 0 0 -.848-1.132zm-46.368 15.434a18.937 18.937 0 0 0 3.712 5.346 3.994 3.994 0 1 1 -3.75-5.346zm19.226 27h-4a2 2 0 0 1 -2-2v-1h8v1a2 2 0 0 1 -2 2zm2-7v2h-8v-2zm-12.237-9.441-2.145 2.141-2.077-1.432a2 2 0 0 0 -3.092 1.235l-.524 2.497h-2.377l-.524-2.493a2 2 0 0 0 -3.092-1.235l-2.078 1.428-1.822-1.818 1.431-2.076a2 2 0 0 0 -1.234-3.093l-2.493-.525v-2.376l2.493-.525a2 2 0 0 0 1.235-3.087l-1.432-2.082 1.822-1.818 2.079 1.432a2 2 0 0 0 3.091-1.236l.175-.832a19.04 19.04 0 0 0 .793 3.391 6 6 0 1 0 6.047 8.7 18.905 18.905 0 0 0 1.709 1.245 4.881 4.881 0 0 1 2.015 2.559zm35.537-20.195-2.9-.414a3 3 0 0 0 -2.824 4.77l1.757 2.343-3.2 2.4-1.758-2.342a3 3 0 0 0 -5.37 1.375l-.405 2.904-3.959-.566.414-2.9a3 3 0 0 0 -4.77-2.825l-2.343 1.757-2.4-3.2 2.342-1.758a3 3 0 0 0 -1.375-5.37l-2.9-.414.566-3.959 2.9.414a3 3 0 0 0 2.825-4.77l-1.763-2.345 3.2-2.4 1.758 2.343a3 3 0 0 0 5.37-1.375l.414-2.9 3.959.565-.414 2.9a3 3 0 0 0 4.77 2.824l2.343-1.757 2.4 3.2-2.343 1.758a3 3 0 0 0 1.375 5.37l2.9.414z"/><path d="m44.736 11.264a8 8 0 1 0 8 8 8.009 8.009 0 0 0 -8-8zm0 14a6 6 0 1 1 6-6 6.007 6.007 0 0 1 -6 6z"/><path d="m31 46h2v3h-2z"/><path d="m27.626 36.179a12 12 0 0 1 -2.026-21.333l-1.069-1.692a14 14 0 0 0 2.369 24.886 6.384 6.384 0 0 1 4.1 5.96h2a8.367 8.367 0 0 0 -5.374-7.821z"/><path d="m51 39h7v2h-7z"/><path d="m52 43.595h2v7.81h-2z" transform="matrix(0.6401097 -0.76828352 0.76828352 0.6401097 -17.419 57.814)"/><path d="m45 47h2v7h-2z"/><path d="m2.877 18h8.246v1.999h-8.246z" transform="matrix(0.97014353 -0.2425315 0.2425315 0.97014353 -4.399 2.265)"/><path d="m7.5 6.199h1.999v8.602h-1.999z" transform="matrix(0.58124277 -0.8137302 0.8137302 0.58124277 -4.985 11.314)"/><path d="m13.978 1.871h2v8.257h-2z" transform="matrix(0.96884738 -0.24765854 0.24765854 0.96884738 -1.019 3.896)"/></g></defs><g fi:class="KUsePattern"><pattern id="pattern_L1_1655" width="350" height="350" patternUnits="userSpaceOnUse"><use xlink:href="#L1_1655" x="-350" y="-350"/><use xlink:href="#L1_1655" x="0" y="-350"/><use xlink:href="#L1_1655" x="350" y="-350"/><use xlink:href="#L1_1655" x="-350" y="0"/><use xlink:href="#L1_1655" x="0" y="0"/><use xlink:href="#L1_1655" x="350" y="0"/><use xlink:href="#L1_1655" x="-350" y="350"/><use xlink:href="#L1_1655" x="0" y="350"/><use xlink:href="#L1_1655" x="350" y="350"/></pattern><rect x="0" y="0" width="100%" height="100%" fill="url(#pattern_L1_1655)"/></g><g fi:class="KUsePattern"><pattern id="pattern_L1_1656" width="350" height="350" patternUnits="userSpaceOnUse"><use xlink:href="#L1_1656" x="-350" y="-350"/><use xlink:href="#L1_1656" x="0" y="-350"/><use xlink:href="#L1_1656" x="350" y="-350"/><use xlink:href="#L1_1656" x="-350" y="0"/><use xlink:href="#L1_1656" x="0" y="0"/><use xlink:href="#L1_1656" x="350" y="0"/><use xlink:href="#L1_1656" x="-350" y="350"/><use xlink:href="#L1_1656" x="0" y="350"/><use xlink:href="#L1_1656" x="350" y="350"/></pattern><rect x="0" y="0" width="100%" height="100%" fill="url(#pattern_L1_1656)"/></g><g fi:class="KUsePattern"><pattern id="pattern_L1_1658" width="350" height="350" patternUnits="userSpaceOnUse"><use xlink:href="#L1_1658" x="-350" y="-350"/><use xlink:href="#L1_1658" x="0" y="-350"/><use xlink:href="#L1_1658" x="350" y="-350"/><use xlink:href="#L1_1658" x="-350" y="0"/><use xlink:href="#L1_1658" x="0" y="0"/><use xlink:href="#L1_1658" x="350" y="0"/><use xlink:href="#L1_1658" x="-350" y="350"/><use xlink:href="#L1_1658" x="0" y="350"/><use xlink:href="#L1_1658" x="350" y="350"/></pattern><rect x="0" y="0" width="100%" height="100%" fill="url(#pattern_L1_1658)"/></g><g fi:class="KUsePattern"><pattern id="pattern_L1_1659" width="350" height="350" patternUnits="userSpaceOnUse"><use xlink:href="#L1_1659" x="-350" y="-350"/><use xlink:href="#L1_1659" x="0" y="-350"/><use xlink:href="#L1_1659" x="350" y="-350"/><use xlink:href="#L1_1659" x="-350" y="0"/><use xlink:href="#L1_1659" x="0" y="0"/><use xlink:href="#L1_1659" x="350" y="0"/><use xlink:href="#L1_1659" x="-350" y="350"/><use xlink:href="#L1_1659" x="0" y="350"/><use xlink:href="#L1_1659" x="350" y="350"/></pattern><rect x="0" y="0" width="100%" height="100%" fill="url(#pattern_L1_1659)"/></g><g fi:class="KUsePattern"><pattern id="pattern_L1_1650" width="350" height="350" patternUnits="userSpaceOnUse"><use xlink:href="#L1_1650" x="-350" y="-350"/><use xlink:href="#L1_1650" x="0" y="-350"/><use xlink:href="#L1_1650" x="350" y="-350"/><use xlink:href="#L1_1650" x="-350" y="0"/><use xlink:href="#L1_1650" x="0" y="0"/><use xlink:href="#L1_1650" x="350" y="0"/><use xlink:href="#L1_1650" x="-350" y="350"/><use xlink:href="#L1_1650" x="0" y="350"/><use xlink:href="#L1_1650" x="350" y="350"/></pattern><rect x="0" y="0" width="100%" height="100%" fill="url(#pattern_L1_1650)"/></g><g fi:class="KUsePattern"><pattern id="pattern_L1_1660" width="350" height="350" patternUnits="userSpaceOnUse"><use xlink:href="#L1_1660" x="-350" y="-350"/><use xlink:href="#L1_1660" x="0" y="-350"/><use xlink:href="#L1_1660" x="350" y="-350"/><use xlink:href="#L1_1660" x="-350" y="0"/><use xlink:href="#L1_1660" x="0" y="0"/><use xlink:href="#L1_1660" x="350" y="0"/><use xlink:href="#L1_1660" x="-350" y="350"/><use xlink:href="#L1_1660" x="0" y="350"/><use xlink:href="#L1_1660" x="350" y="350"/></pattern><rect x="0" y="0" width="100%" height="100%" fill="url(#pattern_L1_1660)"/></g><g fi:class="KUsePattern"><pattern id="pattern_L1_1661" width="350" height="350" patternUnits="userSpaceOnUse"><use xlink:href="#L1_1661" x="-350" y="-350"/><use xlink:href="#L1_1661" x="0" y="-350"/><use xlink:href="#L1_1661" x="350" y="-350"/><use xlink:href="#L1_1661" x="-350" y="0"/><use xlink:href="#L1_1661" x="0" y="0"/><use xlink:href="#L1_1661" x="350" y="0"/><use xlink:href="#L1_1661" x="-350" y="350"/><use xlink:href="#L1_1661" x="0" y="350"/><use xlink:href="#L1_1661" x="350" y="350"/></pattern><rect x="0" y="0" width="100%" height="100%" fill="url(#pattern_L1_1661)"/></g></svg>