<svg xmlns="http://www.w3.org/2000/svg" xmlns:xlink="http://www.w3.org/1999/xlink" xmlns:fi="http://pattern.flaticon.com/" x="0" y="0" width="700" height="350" viewBox="0 0 700 350"><rect x="0px" y="0px" width="100%" height="100%" opacity="0" fill="#4caf50"/><defs><g transform="matrix(0.17578125 0 0 0.17578125 305 305)" id="L1_1026"><path d="M416,40H96c-22.055,0-40,17.945-40,40v392c0,22.055,17.945,40,40,40h320c22.055,0,40-17.945,40-40    V80C456,57.945,438.055,40,416,40z" fill="#996459"/><path d="M415.6,72c4.639,0,8.4,3.728,8.4,8.327v391.347c0,4.599-3.761,8.327-8.4,8.327H96.4    c-4.639,0-8.4-3.728-8.4-8.327V80.326C88,75.728,91.761,72,96.4,72H415.6z" fill="#ffffff"/><path d="M200,216h-48c-8.82,0-16-7.18-16-16v-48c0-8.82,7.18-16,16-16h48c8.82,0,16,7.18,16,16v48     C216,208.82,208.82,216,200,216z M152,152v48h48.016L200,152H152z" fill="#b4b6bc"/><path d="M264,160h-24c-4.422,0-8-3.578-8-8s3.578-8,8-8h24c4.422,0,8,3.578,8,8S268.422,160,264,160z" fill="#5c546a"/><path d="M360,192H240c-4.422,0-8-3.578-8-8s3.578-8,8-8h120c4.422,0,8,3.578,8,8S364.422,192,360,192z" fill="#868491"/><path d="M320,272h-80c-4.422,0-8-3.578-8-8s3.578-8,8-8h80c4.422,0,8,3.578,8,8S324.422,272,320,272z" fill="#5c546a"/><path d="M360,304H240c-4.422,0-8-3.578-8-8s3.578-8,8-8h120c4.422,0,8,3.578,8,8S364.422,304,360,304z" fill="#868491"/><path d="M272,376h-32c-4.422,0-8-3.578-8-8s3.578-8,8-8h32c4.422,0,8,3.578,8,8S276.422,376,272,376z" fill="#5c546a"/><path d="M360,408H240c-4.422,0-8-3.578-8-8s3.578-8,8-8h120c4.422,0,8,3.578,8,8S364.422,408,360,408z" fill="#868491"/><path d="M288,40c-4.422,0-8-3.578-8-8v-8c0-4.414-3.586-8-8-8h-32c-4.414,0-8,3.586-8,8v8     c0,4.422-3.578,8-8,8s-8-3.578-8-8v-8c0-13.234,10.766-24,24-24h32c13.234,0,24,10.766,24,24v8C296,36.422,292.422,40,288,40z" fill="#868491"/><path d="M344,24H168c-4.418,0-8,3.582-8,8v24c0,22.091,17.909,40,40,40h112c22.091,0,40-17.909,40-40V32    C352,27.582,348.418,24,344,24z" fill="#b4b6bc"/><path d="M200,320h-48c-8.82,0-16-7.18-16-16v-48c0-8.82,7.18-16,16-16h48c8.82,0,16,7.18,16,16v48     C216,312.82,208.82,320,200,320z M152,256v48h48.016L200,256H152z" fill="#b4b6bc"/><path d="M200,424h-48c-8.82,0-16-7.18-16-16v-48c0-8.82,7.18-16,16-16h48c8.82,0,16,7.18,16,16v48     C216,416.82,208.82,424,200,424z M152,360v48h48.016L200,360H152z" fill="#b4b6bc"/><path d="M184,296c-2.047,0-4.094-0.781-5.656-2.344l-16-16c-3.125-3.125-3.125-8.188,0-11.313     s8.188-3.125,11.313,0L184,276.687l34.344-34.344c3.125-3.125,8.188-3.125,11.313,0s3.125,8.187,0,11.312l-40,40     C188.094,295.219,186.047,296,184,296z" fill="#ff4f19"/></g><g transform="matrix(-0.1171875 0 0 0.1171875 117.5 57.5)" id="L1_1027"><path d="M416,40H96c-22.055,0-40,17.945-40,40v392c0,22.055,17.945,40,40,40h320c22.055,0,40-17.945,40-40    V80C456,57.945,438.055,40,416,40z" fill="#996459"/><path d="M415.6,72c4.639,0,8.4,3.728,8.4,8.327v391.347c0,4.599-3.761,8.327-8.4,8.327H96.4    c-4.639,0-8.4-3.728-8.4-8.327V80.326C88,75.728,91.761,72,96.4,72H415.6z" fill="#ffffff"/><path d="M200,216h-48c-8.82,0-16-7.18-16-16v-48c0-8.82,7.18-16,16-16h48c8.82,0,16,7.18,16,16v48     C216,208.82,208.82,216,200,216z M152,152v48h48.016L200,152H152z" fill="#b4b6bc"/><path d="M264,160h-24c-4.422,0-8-3.578-8-8s3.578-8,8-8h24c4.422,0,8,3.578,8,8S268.422,160,264,160z" fill="#5c546a"/><path d="M360,192H240c-4.422,0-8-3.578-8-8s3.578-8,8-8h120c4.422,0,8,3.578,8,8S364.422,192,360,192z" fill="#868491"/><path d="M320,272h-80c-4.422,0-8-3.578-8-8s3.578-8,8-8h80c4.422,0,8,3.578,8,8S324.422,272,320,272z" fill="#5c546a"/><path d="M360,304H240c-4.422,0-8-3.578-8-8s3.578-8,8-8h120c4.422,0,8,3.578,8,8S364.422,304,360,304z" fill="#868491"/><path d="M272,376h-32c-4.422,0-8-3.578-8-8s3.578-8,8-8h32c4.422,0,8,3.578,8,8S276.422,376,272,376z" fill="#5c546a"/><path d="M360,408H240c-4.422,0-8-3.578-8-8s3.578-8,8-8h120c4.422,0,8,3.578,8,8S364.422,408,360,408z" fill="#868491"/><path d="M288,40c-4.422,0-8-3.578-8-8v-8c0-4.414-3.586-8-8-8h-32c-4.414,0-8,3.586-8,8v8     c0,4.422-3.578,8-8,8s-8-3.578-8-8v-8c0-13.234,10.766-24,24-24h32c13.234,0,24,10.766,24,24v8C296,36.422,292.422,40,288,40z" fill="#868491"/><path d="M344,24H168c-4.418,0-8,3.582-8,8v24c0,22.091,17.909,40,40,40h112c22.091,0,40-17.909,40-40V32    C352,27.582,348.418,24,344,24z" fill="#b4b6bc"/><path d="M200,320h-48c-8.82,0-16-7.18-16-16v-48c0-8.82,7.18-16,16-16h48c8.82,0,16,7.18,16,16v48     C216,312.82,208.82,320,200,320z M152,256v48h48.016L200,256H152z" fill="#b4b6bc"/><path d="M200,424h-48c-8.82,0-16-7.18-16-16v-48c0-8.82,7.18-16,16-16h48c8.82,0,16,7.18,16,16v48     C216,416.82,208.82,424,200,424z M152,360v48h48.016L200,360H152z" fill="#b4b6bc"/><path d="M184,296c-2.047,0-4.094-0.781-5.656-2.344l-16-16c-3.125-3.125-3.125-8.188,0-11.313     s8.188-3.125,11.313,0L184,276.687l34.344-34.344c3.125-3.125,8.188-3.125,11.313,0s3.125,8.187,0,11.312l-40,40     C188.094,295.219,186.047,296,184,296z" fill="#ff4f19"/></g><path d="M165,0C74.019,0,0,74.019,0,165s74.019,165,165,165c90.982,0,165-74.019,165-165S255.982,0,165,0z" transform="matrix(0.03030303120613098 0 0 0.03030303120613098 82.5 257.5)" id="L1_1030" fill="#0ffaab"/><g transform="matrix(0.11708733439445496 0 0 0.11708733439445496 162 239.5000020581757)" id="L1_1029"><rect x="32px" y="84px" width="448px" height="336px" fill="#00c37a"/><path d="M472.219,76.219h-432c-8.82,0-16,7.176-16,16v312c0,4.418,3.578,8,8,8s8-3.582,8-8v-312h432v312    c0,4.418,3.578,8,8,8s8-3.582,8-8v-312C488.219,83.395,481.039,76.219,472.219,76.219z" fill="#7e5c62"/><path d="M504.438,436.219H8c-4.418,0-8-3.582-8-8v-16c0-4.418,3.582-8,8-8h496.438c4.418,0,8,3.582,8,8v16    C512.438,432.637,508.856,436.219,504.438,436.219z" fill="#e6be8a"/><path d="M136.219,404.219v-16c0-4.418-3.582-8-8-8h-48c-4.418,0-8,3.582-8,8v16" fill="#ffffff"/><path d="M120.219,276.219c-4.422,0-8-3.582-8-8s3.578-8,8-8c13.234,0,24-10.766,24-24s-10.766-24-24-24     s-24,10.766-24,24c0,4.418-3.578,8-8,8s-8-3.582-8-8c0-22.055,17.945-40,40-40s40,17.945,40,40S142.273,276.219,120.219,276.219z     " fill="#ffffff"/><path d="M152.219,308.219h-64c-4.422,0-8-3.582-8-8v-8c0-17.645,14.352-32,32-32h8c4.422,0,8,3.582,8,8     s-3.578,8-8,8h-8c-8.82,0-16,7.176-16,16h56c4.422,0,8,3.582,8,8S156.641,308.219,152.219,308.219z" fill="#ffffff"/><path d="M264.219,276.219c-4.422,0-8-3.582-8-8s3.578-8,8-8c13.234,0,24-10.766,24-24s-10.766-24-24-24     s-24,10.766-24,24c0,4.418-3.578,8-8,8s-8-3.582-8-8c0-22.055,17.945-40,40-40s40,17.945,40,40S286.273,276.219,264.219,276.219z     " fill="#ffffff"/><path d="M296.219,308.219h-64c-4.422,0-8-3.582-8-8v-8c0-17.645,14.352-32,32-32h8c4.422,0,8,3.582,8,8     s-3.578,8-8,8h-8c-8.82,0-16,7.176-16,16h56c4.422,0,8,3.582,8,8S300.641,308.219,296.219,308.219z" fill="#ffffff"/><path d="M208.219,260.219h-32c-4.422,0-8-3.582-8-8s3.578-8,8-8h32c4.422,0,8,3.582,8,8     S212.641,260.219,208.219,260.219z" fill="#ffffff"/><path d="M352.219,276.219h-32c-4.422,0-8-3.582-8-8s3.578-8,8-8h32c4.422,0,8,3.582,8,8     S356.641,276.219,352.219,276.219z" fill="#ffffff"/><path d="M352.219,252.219h-32c-4.422,0-8-3.582-8-8s3.578-8,8-8h32c4.422,0,8,3.582,8,8     S356.641,252.219,352.219,252.219z" fill="#ffffff"/><path d="M192.219,276.219c-4.422,0-8-3.582-8-8v-32c0-4.418,3.578-8,8-8s8,3.582,8,8v32     C200.219,272.637,196.641,276.219,192.219,276.219z" fill="#ffffff"/><path d="M440.219,276.219h-64c-2.461,0-4.789-1.137-6.305-3.078s-2.055-4.473-1.453-6.863l16-64     c1.07-4.285,5.406-6.906,9.695-5.82c4.289,1.07,6.898,5.414,5.82,9.703l-13.508,54.059h53.75c4.422,0,8,3.582,8,8     S444.64,276.219,440.219,276.219z" fill="#ffffff"/><path d="M424.219,308.219c-4.422,0-8-3.582-8-8v-72c0-4.418,3.578-8,8-8s8,3.582,8,8v72     C432.219,304.637,428.64,308.219,424.219,308.219z" fill="#ffffff"/><path d="M0,420.219v8c0,4.418,3.582,8,8,8h496.438c4.418,0,8-3.582,8-8v-8H0z" fill="#c9a07c"/></g><path d="M165,0C74.019,0,0,74.019,0,165s74.019,165,165,165c90.982,0,165-74.019,165-165S255.982,0,165,0z" transform="matrix(0.03030303120613098 0 0 0.03030303120613098 345 82.5)" id="L1_1031" fill="#e62962"/><g transform="matrix(0.039029110223054886 0 0 0.039029110223054886 340 165)" id="L1_1033"><rect x="32px" y="84px" width="448px" height="336px" fill="#00c37a"/><path d="M472.219,76.219h-432c-8.82,0-16,7.176-16,16v312c0,4.418,3.578,8,8,8s8-3.582,8-8v-312h432v312    c0,4.418,3.578,8,8,8s8-3.582,8-8v-312C488.219,83.395,481.039,76.219,472.219,76.219z" fill="#7e5c62"/><path d="M504.438,436.219H8c-4.418,0-8-3.582-8-8v-16c0-4.418,3.582-8,8-8h496.438c4.418,0,8,3.582,8,8v16    C512.438,432.637,508.856,436.219,504.438,436.219z" fill="#e6be8a"/><path d="M136.219,404.219v-16c0-4.418-3.582-8-8-8h-48c-4.418,0-8,3.582-8,8v16" fill="#ffffff"/><path d="M120.219,276.219c-4.422,0-8-3.582-8-8s3.578-8,8-8c13.234,0,24-10.766,24-24s-10.766-24-24-24     s-24,10.766-24,24c0,4.418-3.578,8-8,8s-8-3.582-8-8c0-22.055,17.945-40,40-40s40,17.945,40,40S142.273,276.219,120.219,276.219z     " fill="#ffffff"/><path d="M152.219,308.219h-64c-4.422,0-8-3.582-8-8v-8c0-17.645,14.352-32,32-32h8c4.422,0,8,3.582,8,8     s-3.578,8-8,8h-8c-8.82,0-16,7.176-16,16h56c4.422,0,8,3.582,8,8S156.641,308.219,152.219,308.219z" fill="#ffffff"/><path d="M264.219,276.219c-4.422,0-8-3.582-8-8s3.578-8,8-8c13.234,0,24-10.766,24-24s-10.766-24-24-24     s-24,10.766-24,24c0,4.418-3.578,8-8,8s-8-3.582-8-8c0-22.055,17.945-40,40-40s40,17.945,40,40S286.273,276.219,264.219,276.219z     " fill="#ffffff"/><path d="M296.219,308.219h-64c-4.422,0-8-3.582-8-8v-8c0-17.645,14.352-32,32-32h8c4.422,0,8,3.582,8,8     s-3.578,8-8,8h-8c-8.82,0-16,7.176-16,16h56c4.422,0,8,3.582,8,8S300.641,308.219,296.219,308.219z" fill="#ffffff"/><path d="M208.219,260.219h-32c-4.422,0-8-3.582-8-8s3.578-8,8-8h32c4.422,0,8,3.582,8,8     S212.641,260.219,208.219,260.219z" fill="#ffffff"/><path d="M352.219,276.219h-32c-4.422,0-8-3.582-8-8s3.578-8,8-8h32c4.422,0,8,3.582,8,8     S356.641,276.219,352.219,276.219z" fill="#ffffff"/><path d="M352.219,252.219h-32c-4.422,0-8-3.582-8-8s3.578-8,8-8h32c4.422,0,8,3.582,8,8     S356.641,252.219,352.219,252.219z" fill="#ffffff"/><path d="M192.219,276.219c-4.422,0-8-3.582-8-8v-32c0-4.418,3.578-8,8-8s8,3.582,8,8v32     C200.219,272.637,196.641,276.219,192.219,276.219z" fill="#ffffff"/><path d="M440.219,276.219h-64c-2.461,0-4.789-1.137-6.305-3.078s-2.055-4.473-1.453-6.863l16-64     c1.07-4.285,5.406-6.906,9.695-5.82c4.289,1.07,6.898,5.414,5.82,9.703l-13.508,54.059h53.75c4.422,0,8,3.582,8,8     S444.64,276.219,440.219,276.219z" fill="#ffffff"/><path d="M424.219,308.219c-4.422,0-8-3.582-8-8v-72c0-4.418,3.578-8,8-8s8,3.582,8,8v72     C432.219,304.637,428.64,308.219,424.219,308.219z" fill="#ffffff"/><path d="M0,420.219v8c0,4.418,3.582,8,8,8h496.438c4.418,0,8-3.582,8-8v-8H0z" fill="#c9a07c"/></g><g transform="matrix(0.12096773833036423 0 0 0.12096773833036423 195 58.99999992616716)" id="L1_1035"><path d="M472,116.07H24c-13.234,0-24,10.766-24,24v264c0,13.234,10.766,24,24,24h448    c13.234,0,24-10.766,24-24v-264C496,126.836,485.234,116.07,472,116.07z" fill="#ff4f19"/><rect x="224px" y="388px" width="48px" height="40px" fill="#e3001e"/><path d="M464.219,364.07v24c0,4.418-3.582,8-8,8h-416c-4.418,0-8-3.582-8-8v-24l47.781-24l192,8l160-8    L464.219,364.07z" fill="#e6be8a"/><path d="M43.443,375.116c65.739-27.139,140.084-25.487,204.776,4.954v-288    C181.394,60.625,104.27,59.9,36.97,89.894c-2.896,1.291-4.751,4.222-4.751,7.393v270.515    C32.219,373.581,38.102,377.321,43.443,375.116z" fill="#ffebb7"/><path d="M248.219,380.07c64.692-30.442,139.037-32.093,204.776-4.954    c5.341,2.205,11.224-1.535,11.224-7.314V97.287c0-3.171-1.855-6.102-4.751-7.393c-67.3-29.994-144.425-29.269-211.249,2.176    V380.07z" fill="#ffd788"/><path d="M280.219,327.824c-3.406,0-6.563-2.188-7.633-5.605c-1.32-4.215,1.023-8.707,5.234-10.031     c8.094-2.543,16.422-4.715,24.758-6.461c4.313-0.906,8.563,1.855,9.469,6.188c0.906,4.324-1.859,8.563-6.188,9.469     c-7.828,1.641-15.648,3.684-23.242,6.07C281.82,327.703,281.008,327.824,280.219,327.824z" fill="#868491"/><path d="M432.219,327.824c-0.789,0-1.602-0.121-2.398-0.371c-30.187-9.48-61.477-13.031-92.969-10.523     c-4.469,0.32-8.258-2.941-8.609-7.344c-0.344-4.406,2.938-8.258,7.344-8.609c33.609-2.641,66.891,1.117,99.031,11.211     c4.211,1.324,6.555,5.816,5.234,10.031C438.781,325.637,435.625,327.824,432.219,327.824z" fill="#868491"/><path d="M432.219,295.73c-0.789,0-1.602-0.121-2.398-0.371c-48.156-15.125-99.047-15.125-147.203,0     c-4.234,1.324-8.719-1.023-10.031-5.234c-1.32-4.215,1.023-8.707,5.234-10.031c51.297-16.109,105.5-16.109,156.797,0     c4.211,1.324,6.555,5.816,5.234,10.031C438.781,293.543,435.625,295.73,432.219,295.73z" fill="#868491"/><path d="M280.219,263.824c-3.406,0-6.563-2.188-7.633-5.605c-1.32-4.215,1.023-8.707,5.234-10.031     c29.445-9.242,60-13.176,90.781-11.73c4.406,0.211,7.82,3.957,7.609,8.371c-0.203,4.422-3.891,7.797-8.375,7.613     c-28.883-1.363-57.578,2.332-85.219,11.012C281.82,263.703,281.008,263.824,280.219,263.824z" fill="#868491"/><path d="M432.219,263.824c-0.789,0-1.602-0.121-2.398-0.371c-10.109-3.176-20.539-5.723-31-7.566     c-4.352-0.77-7.258-4.918-6.484-9.27c0.766-4.348,4.922-7.258,9.266-6.488c11.141,1.965,22.242,4.676,33.016,8.059     c4.211,1.324,6.555,5.816,5.234,10.031C438.781,261.637,435.625,263.824,432.219,263.824z" fill="#868491"/><path d="M432.219,231.73c-0.789,0-1.602-0.121-2.398-0.371c-48.156-15.125-99.047-15.125-147.203,0     c-4.234,1.316-8.719-1.027-10.031-5.234c-1.32-4.215,1.023-8.707,5.234-10.031c51.297-16.109,105.5-16.109,156.797,0     c4.211,1.324,6.555,5.816,5.234,10.031C438.781,229.543,435.625,231.73,432.219,231.73z" fill="#868491"/><path d="M280.219,199.731c-3.406,0-6.563-2.188-7.633-5.605c-1.32-4.215,1.023-8.707,5.234-10.031     c16.094-5.055,32.75-8.562,49.523-10.422c4.453-0.535,8.352,2.684,8.836,7.066c0.484,4.391-2.68,8.348-7.07,8.832     c-15.742,1.75-31.391,5.043-46.492,9.789C281.82,199.609,281.008,199.731,280.219,199.731z" fill="#868491"/><path d="M432.219,199.731c-0.789,0-1.602-0.121-2.398-0.371c-22.586-7.098-46.039-10.887-69.719-11.258     c-4.422-0.07-7.945-3.707-7.875-8.125c0.07-4.414,3.93-8.133,8.125-7.875c25.219,0.398,50.211,4.434,74.266,11.992     c4.211,1.324,6.555,5.816,5.234,10.031C438.773,197.543,435.625,199.731,432.219,199.731z" fill="#868491"/><path d="M280.219,167.824c-3.406,0-6.563-2.188-7.633-5.605c-1.32-4.215,1.023-8.707,5.234-10.031     c34.859-10.949,70.937-14.465,107.281-10.422c4.391,0.484,7.555,4.441,7.07,8.832c-0.484,4.387-4.359,7.637-8.836,7.066     c-34.094-3.781-67.992-0.496-100.719,9.789C281.82,167.703,281.008,167.824,280.219,167.824z" fill="#868491"/><path d="M432.219,167.824c-0.789,0-1.602-0.121-2.398-0.371c-5.078-1.598-10.289-3.047-15.5-4.316     c-4.289-1.047-6.922-5.375-5.875-9.668s5.344-6.918,9.672-5.879c5.539,1.352,11.086,2.898,16.5,4.598     c4.211,1.324,6.555,5.816,5.234,10.031C438.781,165.637,435.625,167.824,432.219,167.824z" fill="#868491"/><path d="M280.219,135.731c-3.406,0-6.563-2.191-7.633-5.609c-1.32-4.219,1.023-8.707,5.242-10.027     c5.5-1.727,11.047-3.27,16.492-4.594c4.266-1.051,8.617,1.59,9.664,5.883c1.047,4.293-1.594,8.621-5.883,9.664     c-5.109,1.242-10.32,2.691-15.492,4.312C281.812,135.609,281.008,135.731,280.219,135.731z" fill="#868491"/><path d="M432.219,135.731c-0.789,0-1.602-0.121-2.398-0.371c-32.734-10.285-66.617-13.566-100.719-9.789     c-4.422,0.539-8.352-2.684-8.836-7.066c-0.484-4.391,2.68-8.348,7.07-8.832c36.328-4.043,72.414-0.527,107.281,10.422     c4.211,1.324,6.555,5.816,5.234,10.031C438.781,133.543,435.625,135.731,432.219,135.731z" fill="#868491"/><path d="M64.219,327.824c-3.406,0-6.562-2.188-7.633-5.605c-1.32-4.215,1.023-8.707,5.234-10.031     c8.094-2.543,16.422-4.715,24.758-6.461c4.32-0.906,8.563,1.855,9.469,6.188c0.906,4.324-1.859,8.563-6.188,9.469     c-7.828,1.641-15.648,3.684-23.242,6.07C65.82,327.703,65.008,327.824,64.219,327.824z" fill="#b4b6bc"/><path d="M216.219,327.824c-0.789,0-1.602-0.121-2.398-0.371c-30.18-9.48-61.477-13.031-92.969-10.523     c-4.531,0.32-8.258-2.941-8.609-7.344c-0.344-4.406,2.938-8.258,7.344-8.609c33.609-2.641,66.883,1.117,99.031,11.211     c4.211,1.324,6.555,5.816,5.234,10.031C222.781,325.637,219.625,327.824,216.219,327.824z" fill="#b4b6bc"/><path d="M216.219,295.73c-0.789,0-1.602-0.121-2.398-0.371c-48.156-15.125-99.047-15.125-147.203,0     c-4.25,1.324-8.719-1.023-10.031-5.234c-1.32-4.215,1.023-8.707,5.234-10.031c51.297-16.109,105.5-16.109,156.797,0     c4.211,1.324,6.555,5.816,5.234,10.031C222.781,293.543,219.625,295.73,216.219,295.73z" fill="#b4b6bc"/><path d="M64.219,263.824c-3.406,0-6.562-2.188-7.633-5.605c-1.32-4.215,1.023-8.707,5.234-10.031     c29.445-9.242,60.023-13.176,90.781-11.73c4.406,0.211,7.82,3.957,7.609,8.371c-0.211,4.422-3.938,7.797-8.375,7.613     c-28.891-1.363-57.578,2.332-85.219,11.012C65.82,263.703,65.008,263.824,64.219,263.824z" fill="#b4b6bc"/><path d="M216.219,263.824c-0.789,0-1.602-0.121-2.398-0.371c-10.109-3.176-20.539-5.723-31-7.566     c-4.352-0.77-7.258-4.918-6.484-9.27c0.758-4.348,4.93-7.258,9.266-6.488c11.141,1.965,22.242,4.676,33.016,8.059     c4.211,1.324,6.555,5.816,5.234,10.031C222.781,261.637,219.625,263.824,216.219,263.824z" fill="#b4b6bc"/><path d="M64.219,231.73c-3.406,0-6.562-2.188-7.633-5.605c-1.32-4.215,1.023-8.707,5.234-10.031     c45.477-14.277,94-15.867,140.289-4.594c4.297,1.047,6.93,5.375,5.883,9.668c-1.047,4.289-5.398,6.902-9.664,5.879     c-43.469-10.598-89.016-9.094-131.711,4.313C65.82,231.609,65.008,231.73,64.219,231.73z" fill="#b4b6bc"/><path d="M64.219,199.731c-3.406,0-6.562-2.188-7.633-5.605c-1.32-4.215,1.023-8.707,5.234-10.031     c16.094-5.055,32.75-8.562,49.523-10.422c4.414-0.535,8.352,2.684,8.836,7.066c0.484,4.391-2.68,8.348-7.07,8.832     c-15.742,1.75-31.391,5.043-46.492,9.789C65.82,199.609,65.008,199.731,64.219,199.731z" fill="#b4b6bc"/><path d="M200.227,195.273c-0.625,0-1.266-0.074-1.898-0.227c-17.734-4.32-35.984-6.66-54.227-6.945     c-4.422-0.07-7.945-3.707-7.875-8.125c0.07-4.414,3.523-8.133,8.125-7.875c19.437,0.309,38.867,2.797,57.758,7.398     c4.297,1.047,6.93,5.375,5.883,9.668C207.101,192.824,203.828,195.273,200.227,195.273z" fill="#b4b6bc"/><path d="M64.219,167.824c-3.406,0-6.562-2.188-7.633-5.605c-1.32-4.215,1.023-8.707,5.234-10.031     c34.867-10.949,70.945-14.465,107.281-10.422c4.391,0.484,7.555,4.441,7.07,8.832c-0.484,4.387-4.391,7.637-8.836,7.066     c-34.094-3.781-67.992-0.496-100.719,9.789C65.82,167.703,65.008,167.824,64.219,167.824z" fill="#b4b6bc"/><path d="M64.219,135.731c-3.406,0-6.562-2.191-7.633-5.609c-1.32-4.219,1.023-8.707,5.242-10.027     c5.5-1.727,11.047-3.27,16.492-4.594c4.258-1.051,8.617,1.59,9.664,5.883c1.047,4.293-1.594,8.621-5.883,9.664     c-5.109,1.242-10.32,2.691-15.492,4.312C65.812,135.609,65.008,135.731,64.219,135.731z" fill="#b4b6bc"/><path d="M200.227,131.27c-0.625,0-1.266-0.074-1.898-0.227c-27.961-6.809-56.633-8.641-85.227-5.473     c-4.391,0.539-8.352-2.676-8.836-7.066c-0.484-4.391,2.68-8.348,7.07-8.832c30.445-3.391,61-1.422,90.773,5.824     c4.297,1.047,6.93,5.375,5.883,9.668C207.101,128.82,203.828,131.27,200.227,131.27z" fill="#b4b6bc"/><path d="M200.219,216.064c0.001,3.194,3.561,5.1,6.219,3.328l17.781-11.854L242,219.392    c2.658,1.772,6.219-0.133,6.219-3.328V92.734c0-3.16-1.843-6.077-4.731-7.361c-12.457-5.54-25.259-9.983-38.262-13.418    c-2.537-0.67-5.03,1.292-5.029,3.916L200.219,216.064z" fill="#5d647f"/></g><g transform="matrix(0.08903143554925919 0 0 0.08903143554925919 168.32112113758922 155.29925732142271)" id="L1_1037"><path d="M398.453,210.645c-0.008-2.281-0.984-4.453-2.688-5.969c-1.711-1.516-4-2.223-6.25-1.961    l-271.781,32c-4.023,0.473-7.063,3.891-7.063,7.945v72c0,31.574,90.516,40,144,40s144-8.426,144-40c0,0,0-0.012,0-0.016    L398.453,210.645z" fill="#5d647f"/><path d="M398.453,234.66h-144v119.999c0.072,0,0.147,0.001,0.219,0.001c52.085,0,139.253-8,143.781-37.578    V234.66z" fill="#68748d"/><path d="M493.125,166.473L288.398,96.281c-21.75-7.461-45.703-7.461-67.453,0L16.227,166.473    C6.375,169.848,0,178.758,0,189.176c0,10.414,6.375,19.324,16.227,22.699l204.719,70.191c10.875,3.73,22.297,5.594,33.727,5.594    c11.43,0,22.852-1.863,33.727-5.594l204.727-70.191c9.852-3.375,16.219-12.285,16.219-22.699    C509.344,178.758,502.977,169.848,493.125,166.473z" fill="#74829c"/><path d="M406.453,362.66c-4.422,0-8-3.582-8-8V250.129c0-3.418-2.172-6.461-5.406-7.57L251.86,194.153     c-4.18-1.434-6.406-5.98-4.977-10.16c1.438-4.18,5.977-6.418,10.164-4.973l141.187,48.406     c9.703,3.328,16.219,12.449,16.219,22.703V354.66C414.453,359.078,410.875,362.66,406.453,362.66z" fill="#5c546a"/><path d="M414.453,418.66h-16c-4.418,0-8-3.582-8-8v-48c0-8.837,7.163-16,16-16l0,0c8.837,0,16,7.163,16,16    v48C422.453,415.078,418.871,418.66,414.453,418.66z" fill="#ffe671"/><path d="M254.672,322.66c58.042,0,116.569-8.797,143.962-25.802l-0.046-21.896    c-0.885,10.94-51.563,31.698-143.916,31.698c-93.172,0-144-21.141-144-32v22.174C138.048,313.854,196.603,322.66,254.672,322.66z" fill="#5d647f"/><g><path d="M398.453,296.96c0.057-0.035,0.125-0.067,0.181-0.102l-0.046-21.896     c-0.01,0.124-0.112,0.265-0.135,0.391V296.96z" fill="#5c546a"/><path d="M254.453,306.657c-93.028-0.034-143.781-21.146-143.781-31.997v22.174     c27.342,16.998,85.783,25.801,143.781,25.824V306.657z" fill="#5c546a"/></g><ellipse cx="254px" cy="186px" rx="32px" ry="16px" fill="#5d647f"/><path d="M390.453,362.66v48c0,4.418,3.582,8,8,8h8v-72C397.617,346.66,390.453,353.823,390.453,362.66z" fill="#ffcd00"/></g></defs><g fi:class="KUsePattern"><pattern id="pattern_L1_1026" width="350" height="350" patternUnits="userSpaceOnUse"><use xlink:href="#L1_1026" x="-350" y="-350"/><use xlink:href="#L1_1026" x="0" y="-350"/><use xlink:href="#L1_1026" x="350" y="-350"/><use xlink:href="#L1_1026" x="-350" y="0"/><use xlink:href="#L1_1026" x="0" y="0"/><use xlink:href="#L1_1026" x="350" y="0"/><use xlink:href="#L1_1026" x="-350" y="350"/><use xlink:href="#L1_1026" x="0" y="350"/><use xlink:href="#L1_1026" x="350" y="350"/></pattern><rect x="0" y="0" width="100%" height="100%" fill="url(#pattern_L1_1026)"/></g><g fi:class="KUsePattern"><pattern id="pattern_L1_1027" width="350" height="350" patternUnits="userSpaceOnUse"><use xlink:href="#L1_1027" x="-350" y="-350"/><use xlink:href="#L1_1027" x="0" y="-350"/><use xlink:href="#L1_1027" x="350" y="-350"/><use xlink:href="#L1_1027" x="-350" y="0"/><use xlink:href="#L1_1027" x="0" y="0"/><use xlink:href="#L1_1027" x="350" y="0"/><use xlink:href="#L1_1027" x="-350" y="350"/><use xlink:href="#L1_1027" x="0" y="350"/><use xlink:href="#L1_1027" x="350" y="350"/></pattern><rect x="0" y="0" width="100%" height="100%" fill="url(#pattern_L1_1027)"/></g><g fi:class="KUsePattern"><pattern id="pattern_L1_1030" width="350" height="350" patternUnits="userSpaceOnUse"><use xlink:href="#L1_1030" x="-350" y="-350"/><use xlink:href="#L1_1030" x="0" y="-350"/><use xlink:href="#L1_1030" x="350" y="-350"/><use xlink:href="#L1_1030" x="-350" y="0"/><use xlink:href="#L1_1030" x="0" y="0"/><use xlink:href="#L1_1030" x="350" y="0"/><use xlink:href="#L1_1030" x="-350" y="350"/><use xlink:href="#L1_1030" x="0" y="350"/><use xlink:href="#L1_1030" x="350" y="350"/></pattern><rect x="0" y="0" width="100%" height="100%" fill="url(#pattern_L1_1030)"/></g><g fi:class="KUsePattern"><pattern id="pattern_L1_1029" width="350" height="350" patternUnits="userSpaceOnUse"><use xlink:href="#L1_1029" x="-350" y="-350"/><use xlink:href="#L1_1029" x="0" y="-350"/><use xlink:href="#L1_1029" x="350" y="-350"/><use xlink:href="#L1_1029" x="-350" y="0"/><use xlink:href="#L1_1029" x="0" y="0"/><use xlink:href="#L1_1029" x="350" y="0"/><use xlink:href="#L1_1029" x="-350" y="350"/><use xlink:href="#L1_1029" x="0" y="350"/><use xlink:href="#L1_1029" x="350" y="350"/></pattern><rect x="0" y="0" width="100%" height="100%" fill="url(#pattern_L1_1029)"/></g><g fi:class="KUsePattern"><pattern id="pattern_L1_1031" width="350" height="350" patternUnits="userSpaceOnUse"><use xlink:href="#L1_1031" x="-350" y="-350"/><use xlink:href="#L1_1031" x="0" y="-350"/><use xlink:href="#L1_1031" x="350" y="-350"/><use xlink:href="#L1_1031" x="-350" y="0"/><use xlink:href="#L1_1031" x="0" y="0"/><use xlink:href="#L1_1031" x="350" y="0"/><use xlink:href="#L1_1031" x="-350" y="350"/><use xlink:href="#L1_1031" x="0" y="350"/><use xlink:href="#L1_1031" x="350" y="350"/></pattern><rect x="0" y="0" width="100%" height="100%" fill="url(#pattern_L1_1031)"/></g><g fi:class="KUsePattern"><pattern id="pattern_L1_1033" width="350" height="350" patternUnits="userSpaceOnUse"><use xlink:href="#L1_1033" x="-350" y="-350"/><use xlink:href="#L1_1033" x="0" y="-350"/><use xlink:href="#L1_1033" x="350" y="-350"/><use xlink:href="#L1_1033" x="-350" y="0"/><use xlink:href="#L1_1033" x="0" y="0"/><use xlink:href="#L1_1033" x="350" y="0"/><use xlink:href="#L1_1033" x="-350" y="350"/><use xlink:href="#L1_1033" x="0" y="350"/><use xlink:href="#L1_1033" x="350" y="350"/></pattern><rect x="0" y="0" width="100%" height="100%" fill="url(#pattern_L1_1033)"/></g><g fi:class="KUsePattern"><pattern id="pattern_L1_1035" width="350" height="350" patternUnits="userSpaceOnUse"><use xlink:href="#L1_1035" x="-350" y="-350"/><use xlink:href="#L1_1035" x="0" y="-350"/><use xlink:href="#L1_1035" x="350" y="-350"/><use xlink:href="#L1_1035" x="-350" y="0"/><use xlink:href="#L1_1035" x="0" y="0"/><use xlink:href="#L1_1035" x="350" y="0"/><use xlink:href="#L1_1035" x="-350" y="350"/><use xlink:href="#L1_1035" x="0" y="350"/><use xlink:href="#L1_1035" x="350" y="350"/></pattern><rect x="0" y="0" width="100%" height="100%" fill="url(#pattern_L1_1035)"/></g><g fi:class="KUsePattern"><pattern id="pattern_L1_1037" width="350" height="350" patternUnits="userSpaceOnUse"><use xlink:href="#L1_1037" x="-350" y="-350"/><use xlink:href="#L1_1037" x="0" y="-350"/><use xlink:href="#L1_1037" x="350" y="-350"/><use xlink:href="#L1_1037" x="-350" y="0"/><use xlink:href="#L1_1037" x="0" y="0"/><use xlink:href="#L1_1037" x="350" y="0"/><use xlink:href="#L1_1037" x="-350" y="350"/><use xlink:href="#L1_1037" x="0" y="350"/><use xlink:href="#L1_1037" x="350" y="350"/></pattern><rect x="0" y="0" width="100%" height="100%" fill="url(#pattern_L1_1037)"/></g></svg>