<svg id="Layer_3" enable-background="new 0 0 64 64" height="512" viewBox="0 0 64 64" width="512" xmlns="http://www.w3.org/2000/svg"><g><path d="m62.345 40.062-13.345-4.894v-33.168c0-.552-.447-1-1-1h-12c-.553 0-1 .448-1 1v28.035l-2.655-.974c-.223-.081-.467-.081-.689 0l-2.656.974v-18.035c0-.155-.036-.309-.105-.447l-5-10c-.34-.678-1.449-.678-1.789 0l-5 10c-.07.138-.106.292-.106.447v22.435l-15.345 5.627c-.393.143-.655.518-.655.938s.262.795.655.938l9.345 3.427v10.635c0 .441.29.831.713.958l20 6c.094.028.19.042.287.042s.193-.014.287-.042l20-6c.423-.127.713-.517.713-.958v-10.635l4-1.467v9.102c-1.654 0-3 1.346-3 3v4c0 1.654 1.346 3 3 3h2c1.654 0 3-1.346 3-3v-4c0-1.654-1.346-3-3-3v-9.835l3.345-1.226c.393-.144.655-.519.655-.939s-.262-.795-.655-.938zm-2.345 15.938v4c0 .552-.448 1-1 1h-2c-.552 0-1-.448-1-1v-4c0-.552.448-1 1-1h2c.552 0 1 .448 1 1zm-23-29h6v-2h-6v-2h4v-2h-4v-2h6v-2h-6v-2h4v-2h-4v-2h6v-2h-6v-2h4v-2h-4v-2h10v31.435l-10-3.667zm-11 4.135v-15.721l1-1v16.354zm.783-19.332-1.783 1.783-1.293-1.293c-.391-.391-1.023-.391-1.414 0l-1.293 1.293-1.783-1.783 1.401-2.803h4.764zm-4.783 3.611 1-1 1 1v16.454l-2 .733zm1-11.178 1.382 2.764h-2.764zm-4 10.178 1 1v17.921l-1 .367zm32 40.842-19 5.7-19-5.7v-9.158l18.655 6.84c.112.041.229.062.345.062s.233-.021.345-.062l18.655-6.84zm-19-4.321-27.095-9.935 27.095-9.935 27.095 9.935z"/><path d="m27 41c0 1.71 2.149 3 5 3s5-1.29 5-3-2.149-3-5-3-5 1.29-5 3zm8 0c0 .249-1.064 1-3 1s-3-.751-3-1 1.064-1 3-1 3 .751 3 1z"/></g></svg>