<svg id="Layer_3" enable-background="new 0 0 64 64" height="512" viewBox="0 0 64 64" width="512" xmlns="http://www.w3.org/2000/svg"><g><g><path d="m36 32v-30h12v34" fill="#f5b953"/></g><g><path d="m28 12v25h-10v-25l3 3 2-2 2 2z" fill="#e47c6e"/></g><g><path d="m25 20v-5 22h-4v-22 4-4l2-2 2 2" fill="#c66b60"/></g><g><path d="m18 12 3 3 2-2 2 2 3-3-5-10z" fill="#efbe9a"/></g><g><path d="m26.5 9-3.5-7-3.5 7z" fill="#4d5d7a"/></g><g><path d="m12 45v11l20 6 20-6v-11" fill="#3d98f7"/></g><g><path d="m2 41 30 11 30-11-30-11z" fill="#2b74ca"/></g><g><path d="m59 54h-2c-1.105 0-2 .895-2 2v4c0 1.105.895 2 2 2h2c1.105 0 2-.895 2-2v-4c0-1.105-.895-2-2-2z" fill="#3d98f7"/></g><g><ellipse cx="32" cy="41" fill="#3d98f7" rx="4" ry="2"/></g><g><path d="m32 53c-.116 0-.233-.021-.345-.062l-30-11c-.393-.143-.655-.518-.655-.938s.262-.795.655-.938l30-11c.223-.081.467-.081.689 0l30 11c.394.143.656.518.656.938s-.262.795-.655.938l-30 11c-.112.041-.229.062-.345.062zm-27.095-12 27.095 9.935 27.095-9.935-27.095-9.935z"/></g><g><path d="m32 63c-.097 0-.193-.014-.287-.042l-20-6c-.423-.127-.713-.517-.713-.958v-11h2v10.256l19 5.7 19-5.7v-10.256h2v11c0 .441-.29.831-.713.958l-20 6c-.094.028-.19.042-.287.042z"/></g><g><path d="m59 63h-2c-1.654 0-3-1.346-3-3v-4c0-1.654 1.346-3 3-3h2c1.654 0 3 1.346 3 3v4c0 1.654-1.346 3-3 3zm-2-8c-.552 0-1 .448-1 1v4c0 .552.448 1 1 1h2c.552 0 1-.448 1-1v-4c0-.552-.448-1-1-1z"/></g><g><path d="m57 42h2v12h-2z"/></g><g><path d="m19 35h-2v-23c0-.155.036-.309.105-.447l5-10c.34-.678 1.449-.678 1.789 0l5 10c.07.138.106.292.106.447v20h-2v-19.764l-4-8-4 8z"/></g><g><path d="m24 15h2v18h-2z"/></g><g><path d="m20 15h2v19h-2z"/></g><g><path d="m20 7h6v2h-6z"/></g><g><path d="m25 16c-.256 0-.512-.098-.707-.293l-1.293-1.293-1.293 1.293c-.391.391-1.023.391-1.414 0l-3-3 1.414-1.414 2.293 2.293 1.293-1.293c.391-.391 1.023-.391 1.414 0l1.293 1.293 2.293-2.293 1.414 1.414-3 3c-.195.195-.451.293-.707.293z"/></g><g><path d="m32 44c-2.851 0-5-1.29-5-3s2.149-3 5-3 5 1.29 5 3-2.149 3-5 3zm0-4c-1.936 0-3 .751-3 1s1.064 1 3 1 3-.751 3-1-1.064-1-3-1z"/></g><g><path d="m49 36h-2v-33h-10v29h-2v-30c0-.552.447-1 1-1h12c.553 0 1 .448 1 1z"/></g><g><path d="m36 5h5v2h-5z"/></g><g><path d="m36 9h7v2h-7z"/></g><g><path d="m36 13h5v2h-5z"/></g><g><path d="m36 17h7v2h-7z"/></g><g><path d="m36 21h5v2h-5z"/></g><g><path d="m36 25h7v2h-7z"/></g></g></svg>